<svg class="svg-icon" style="width: 1em; height: 1em;vertical-align: middle;fill: currentColor;overflow: hidden;" viewBox="0 0 1024 1024" version="1.1" xmlns="http://www.w3.org/2000/svg"><path d="M832 170.666667H426.666667a42.666667 42.666667 0 0 0 0 85.333333h405.333333a42.666667 42.666667 0 0 1 42.666667 42.666667v288.426666l-80.213334-80.213333a128 128 0 0 0-48.64-30.293333 42.666667 42.666667 0 1 0-27.306666 81.066666 34.986667 34.986667 0 0 1 15.36 9.813334l141.226666 140.373333a28.16 28.16 0 0 0 0 6.4 35.413333 35.413333 0 0 0 0 6.4 50.346667 50.346667 0 0 0 5.546667 7.68 20.48 20.48 0 0 0 3.84 4.693333 38.4 38.4 0 0 0 8.533333 5.973334 25.6 25.6 0 0 0 4.693334 2.56 38.826667 38.826667 0 0 0 15.786666 3.413333 42.666667 42.666667 0 0 0 42.666667-42.666667V298.666667a128 128 0 0 0-124.16-128zM136.96 97.706667a42.666667 42.666667 0 0 0-60.586667 60.586666L135.68 217.6A128 128 0 0 0 106.666667 298.666667v426.666666a128 128 0 0 0 128 128h537.173333l72.533333 72.96a42.666667 42.666667 0 0 0 60.586667 0 42.666667 42.666667 0 0 0 0-60.586666zM192 298.666667a42.666667 42.666667 0 0 1 5.12-19.626667l116.053333 115.626667a128 128 0 0 0-42.666666 26.88L192 501.76z m42.666667 469.333333a42.666667 42.666667 0 0 1-42.666667-42.666667v-103.253333l140.8-140.373333a42.666667 42.666667 0 0 1 59.733333 0L678.826667 768z"  /></svg>